<?xml version="1.0" encoding="UTF-8"?>
<!-- Editable favicon: realistic green leaf illustration -->
<svg xmlns="http://www.w3.org/2000/svg" viewBox="0 0 64 64" role="img" aria-label="ورقة شجر حقيقية">
  <defs>
    <linearGradient id="bg" x1="0" y1="0" x2="1" y2="1">
      <stop offset="0%" stop-color="#184f33"/>
      <stop offset="100%" stop-color="#0f3824"/>
    </linearGradient>
    <linearGradient id="leafFill" x1="0.18" y1="0.08" x2="0.82" y2="0.95">
      <stop offset="0%" stop-color="#dff7df"/>
      <stop offset="34%" stop-color="#9fe0ab"/>
      <stop offset="72%" stop-color="#56b56b"/>
      <stop offset="100%" stop-color="#2d7f48"/>
    </linearGradient>
    <linearGradient id="leafShadow" x1="0" y1="0" x2="1" y2="1">
      <stop offset="0%" stop-color="#ffffff" stop-opacity="0.35"/>
      <stop offset="100%" stop-color="#ffffff" stop-opacity="0"/>
    </linearGradient>
    <filter id="softShadow" x="-20%" y="-20%" width="140%" height="140%">
      <feDropShadow dx="0" dy="1.4" stdDeviation="1.3" flood-color="#07160f" flood-opacity="0.55"/>
    </filter>
  </defs>

  <rect x="2" y="2" width="60" height="60" rx="14" fill="url(#bg)"/>

  <g filter="url(#softShadow)">
    <path d="M45.7 13.8C39.4 13.2 33.1 15 28 18.8c-5.7 4.2-9.7 10.6-10.7 17.4-1 7.1 1.1 13.8 4.8 18.1 5.8-1.7 11.5-5.3 16.1-10.1 4.9-5 8.6-11.5 10.1-18.7 1-4.8.9-9.6-.2-11.7-.7-1.3-1.7-2-2.4-2z"
          fill="url(#leafFill)"/>

    <path d="M23.8 44.5c4.7-5.3 10.5-9.6 17.6-13"
          stroke="#1c5d37" stroke-width="2.2" stroke-linecap="round" fill="none"/>

    <path d="M26.4 36.2c2.2-1.5 4.7-2.6 7.4-3.2"
          stroke="#256944" stroke-width="1.5" stroke-linecap="round" fill="none" opacity="0.9"/>
    <path d="M29 31.4c2.3-1 4.6-1.7 7-2"
          stroke="#256944" stroke-width="1.5" stroke-linecap="round" fill="none" opacity="0.9"/>
    <path d="M32.1 27c2.1-.7 4.1-1 6.1-1.1"
          stroke="#256944" stroke-width="1.5" stroke-linecap="round" fill="none" opacity="0.9"/>

    <path d="M26.2 39.4c1.7-.1 3.4.1 5 .6"
          stroke="#2f7a4c" stroke-width="1.2" stroke-linecap="round" fill="none" opacity="0.8"/>
    <path d="M31.1 34.9c1.6-.2 3.2 0 4.8.5"
          stroke="#2f7a4c" stroke-width="1.2" stroke-linecap="round" fill="none" opacity="0.8"/>

    <path d="M25.6 21.1c3.9-1.8 8.4-2.4 12.8-1.9 2.2.2 4.3.7 6.2 1.5-1.2 2.5-3.1 4.9-5.7 7.1-3.3 2.8-7.4 5.1-11.7 6.8-3.5 1.4-7 2.4-9.9 3-1.1-5.3.5-11.4 8.3-16.5z"
          fill="url(#leafShadow)" opacity="0.5"/>

    <path d="M22.8 48.8c1.1-1.1 2.3-2.1 3.6-3.1"
          stroke="#1a4f31" stroke-width="2" stroke-linecap="round" fill="none"/>
    <path d="M22.3 49.2c-.6 1.6-.9 3-.9 4.1"
          stroke="#1a4f31" stroke-width="1.7" stroke-linecap="round" fill="none"/>
  </g>
</svg>
